<svg xmlns="http://www.w3.org/2000/svg" width="256" height="256" viewBox="0 0 256 256"><circle cx="128" cy="128" r="128"/><path fill="#FFF" d="M181.035 228.486c-9.88 0-14.08-.336-19.035-8.486 0 0-6.002.148-9 0-5.014-.193-6-4.928-6-8 0-8.04 3.104-16.455 3-25-.035-3.04-4.467-14.16-6-18-4.81.906-9.5 2-18 2s-19.914-2.254-31-4c-2.16 8.926-8.31 21.928-3 31 6.442 9.383 10.992 11.436 18 12s8.695 8.174 7 11c-2.125 3.375-4.883 3-9 3s-8.858-1.53-12-3c-5.25-2.932-7.973-6.625-12-11 .938 1.748-.3 4.807-2 6-3.47 2.434-13.328 2.62-17 1-5.358-2.383-19-19.477-21-32 5.325-10.074 13.074-18.03 17-29-8.556-5.46-13.674-16.99-11.993-25.143.89-4.324 1.993-6.84-3.007-9.857-22.066-10.832-18.714-46.676-11-65 6.706-15.934 22.39-23.95 31-16 7.623 7.04 7.375 13 4 13-3.376 0-5.01-6.266-8-8-8.052-4.676-16.65 6.92-20 17-4.586 13.797-8.236 47.324 14 48 4.284-.146 6.647-.51 10-2 5.48-2.434 13.572-3.895 18-4 15.02-.48 33.03 5.746 42 6 8.967.252 21.168-2.508 29-2 5.68.26 11.518 1.54 17 3 3.55-17.297 3.586-30.05 12-33 4.936.78 9.184 7.406 12 11 5.746-.23 10.574 1.387 16 3 9.824-1.395 18.324-6.707 27-11-8.79 7.18-10.004 18.2-9 29 .373 5.605-1.045 12.26-3 18-3.664 9.352-10.79 19.504-19 19-3.105-.1-5.693-2.123-8-4-.447 3.8-2.303 7.637-4 11-3.914 7.453-13.527 10.04-23 18s2.97 36.82 6 42c3.033 5.18 11.195 6.176 9 11-.71 2.1-2.812 3.486-6.965 3.486zm-109.03-23.59c2.187.862 6.98.556 8.995 1.104-3.707-3.51-8.977-8.752-13-12-1.32-3.93-1-12-1-12-1.584 3.215-3.918 6.62-5 10-1.137 3.71 5.34 11.053 10.006 12.895z"/></svg>