<svg xmlns="http://www.w3.org/2000/svg" width="64.003" height="64.003" viewBox="-500.5 395.5 64.003 64.003"><path d="M-468.5 396.5l26.426 15.5v31l-26.425 15.5-26.426-15.5v-31l26.427-15.5z"/><path fill="#FFF" d="M-485.996 419.088h34.99v16.824h-34.99z"/><path fill="#E2001A" d="M-468.5 405.5c-12.15 0-22 9.85-22 22s9.85 22 22 22 22-9.85 22-22-9.85-22-22-22zm13.11 21.637c-1.022.682-2.674 1.023-4.954 1.023h-2.838c-1.505 0-2.598.3-3.28.9-.68.6-1.22 1.804-1.622 3.615 0 0-.063.526-.178.526s-.13-.31-.184-.562c-.056-.263-.14-.59-.256-.977-.224-.758-.447-1.332-.67-1.72-.27-.482-.613-.87-1.024-1.165-.412-.294-.883-.47-1.413-.528l-.74-.088h-3.637c-2.178 0-3.796-.343-4.855-1.024-1.764-1.12-2.71-3.24-2.842-6.357-.01-.25 0-.48.047-.772h.208c.142 1.41 1.304 2.502 2.158 3.274.853.77 2.222 1.155 4.104 1.155h3.3c1.896 0 3.28.436 4.158 1.306.79.786 1.31 2.017 1.56 3.69.028.183.012.263.064.263.053 0 .04-.09.06-.278.253-2.173 1.094-3.627 2.522-4.363.88-.46 2.28-.676 4.196-.652l2.257.035c1.527.023 2.814-.278 3.86-.908 1.046-.63 2.285-1.803 2.425-3.52h.21c.065.17.057.56.045.828-.13 3.105-1.023 5.206-2.68 6.3z"/></svg>